<svg width="20" height="20" viewBox="0 0 20 20" fill="none" xmlns="http://www.w3.org/2000/svg">
<g clip-path="url(#clip0_760_5419)">
<path d="M13.49 14.4275L14.8175 13.0988L10.9375 9.21875V3.75H9.0625V10L13.49 14.4275ZM10 20C8.62833 20 7.335 19.7396 6.12 19.2188C4.905 18.6979 3.84167 17.9817 2.93 17.07C2.01833 16.1583 1.30208 15.095 0.78125 13.88C0.260417 12.665 0 11.3717 0 10C0 8.61083 0.260417 7.30875 0.78125 6.09375C1.30208 4.87875 2.01833 3.81958 2.93 2.91625C3.84167 2.01375 4.905 1.30208 6.12 0.78125C7.335 0.260417 8.62833 0 10 0C11.3892 0 12.6912 0.260417 13.9062 0.78125C15.1213 1.30208 16.1804 2.01375 17.0837 2.91625C17.9862 3.81958 18.6979 4.87875 19.2188 6.09375C19.7396 7.30875 20 8.61083 20 10C20 11.3717 19.7396 12.665 19.2188 13.88C18.6979 15.095 17.9862 16.1583 17.0837 17.07C16.1804 17.9817 15.1213 18.6979 13.9062 19.2188C12.6912 19.7396 11.3892 20 10 20Z" fill="url(#paint0_linear_760_5419)"/>
</g>
<defs>
<linearGradient id="paint0_linear_760_5419" x1="0" y1="10" x2="20" y2="10" gradientUnits="userSpaceOnUse">
<stop stop-color="#00AAFF"/>
<stop offset="1" stop-color="#23D2B5"/>
</linearGradient>
<clipPath id="clip0_760_5419">
<rect width="20" height="20" fill="white"/>
</clipPath>
</defs>
</svg>
