<svg width="135" height="44" viewBox="0 0 135 44" fill="none" xmlns="http://www.w3.org/2000/svg">
<rect width="135" height="44" fill="white"/>
<rect x="8.25" y="4.25" width="35.5" height="35.5" rx="5.75" fill="white"/>
<g clip-path="url(#clip0_10_3933)">
<path d="M25.99 12C20.47 12 16 16.48 16 22C16 27.52 20.47 32 25.99 32C31.52 32 36 27.52 36 22C36 16.48 31.52 12 25.99 12ZM26 30C21.58 30 18 26.42 18 22C18 17.58 21.58 14 26 14C30.42 14 34 17.58 34 22C34 26.42 30.42 30 26 30Z" fill="url(#paint0_linear_10_3933)"/>
<path d="M26.5 17H25V23L30.25 26.15L31 24.92L26.5 22.25V17Z" fill="url(#paint1_linear_10_3933)"/>
</g>
<rect x="8.25" y="4.25" width="35.5" height="35.5" rx="5.75" stroke="url(#paint2_linear_10_3933)" stroke-width="0.5"/>
<path d="M62.213 30.264C64.061 30.264 65.741 29.88 66.965 29.328L66.557 26.328C65.309 26.808 64.037 27.048 62.669 27.048C60.173 27.048 58.997 26.136 58.805 23.712H67.277C67.349 23.208 67.373 22.512 67.373 21.96C67.373 17.352 65.093 15.192 61.373 15.192C57.005 15.192 54.965 17.904 54.965 22.536C54.965 27.624 57.197 30.264 62.213 30.264ZM58.733 21.24C58.901 19.128 59.597 18.288 61.397 18.288C62.957 18.288 63.917 19.104 63.965 21.24H58.733ZM82.2275 15.648L82.1315 12H68.5715L68.4755 15.648H73.2995V30H77.3795V15.648H82.2275ZM88.2438 30V15.384L84.4278 15.552V30H88.2438ZM88.4598 12.312C88.4598 11.256 87.8118 10.704 86.3478 10.704C84.9078 10.704 84.2118 11.28 84.2118 12.312C84.2118 13.488 84.9078 13.896 86.3478 13.896C87.8118 13.896 88.4598 13.368 88.4598 12.312ZM111.46 30V20.64C111.46 17.016 109.444 15.192 106.564 15.192C104.908 15.192 103.468 15.792 102.484 17.136C101.716 15.816 100.468 15.192 98.6439 15.192C97.2999 15.192 95.9559 15.768 94.9479 16.728L94.3479 15.36L91.6599 15.552V30H95.4039V19.584C95.8359 18.912 96.6999 18.48 97.5879 18.48C98.8839 18.48 99.6999 19.104 99.6999 20.592V30H103.42V20.592C103.42 19.176 104.308 18.48 105.556 18.48C106.924 18.48 107.74 19.2 107.74 20.712V30H111.46ZM120.901 30.264C122.749 30.264 124.429 29.88 125.653 29.328L125.245 26.328C123.997 26.808 122.725 27.048 121.357 27.048C118.861 27.048 117.685 26.136 117.493 23.712H125.965C126.036 23.208 126.061 22.512 126.061 21.96C126.061 17.352 123.781 15.192 120.061 15.192C115.693 15.192 113.653 17.904 113.653 22.536C113.653 27.624 115.885 30.264 120.901 30.264ZM117.421 21.24C117.589 19.128 118.285 18.288 120.085 18.288C121.645 18.288 122.605 19.104 122.653 21.24H117.421Z" fill="url(#paint3_linear_10_3933)"/>
<defs>
<linearGradient id="paint0_linear_10_3933" x1="16" y1="22" x2="36" y2="22" gradientUnits="userSpaceOnUse">
<stop stop-color="#00AAFF"/>
<stop offset="1" stop-color="#23D2B5"/>
</linearGradient>
<linearGradient id="paint1_linear_10_3933" x1="25" y1="21.575" x2="31" y2="21.575" gradientUnits="userSpaceOnUse">
<stop stop-color="#00AAFF"/>
<stop offset="1" stop-color="#23D2B5"/>
</linearGradient>
<linearGradient id="paint2_linear_10_3933" x1="8" y1="4" x2="44" y2="40" gradientUnits="userSpaceOnUse">
<stop stop-color="#007ACD"/>
<stop offset="1" stop-color="#00AAFF" stop-opacity="0.1"/>
</linearGradient>
<linearGradient id="paint3_linear_10_3933" x1="54" y1="22" x2="127" y2="22" gradientUnits="userSpaceOnUse">
<stop stop-color="#00AAFF"/>
<stop offset="1" stop-color="#23D2B5"/>
</linearGradient>
<clipPath id="clip0_10_3933">
<rect width="24" height="24" fill="white" transform="translate(14 10)"/>
</clipPath>
</defs>
</svg>
